<?xml version="1.0" encoding="utf-8"?>
<!-- Generator: Adobe Illustrator 19.0.0, SVG Export Plug-In . SVG Version: 6.00 Build 0)  -->
<svg version="1.1" id="Layer_1" xmlns="http://www.w3.org/2000/svg" xmlns:xlink="http://www.w3.org/1999/xlink" x="0px" y="0px"
	 viewBox="0 0 141 186" enable-background="new 0 0 141 186" xml:space="preserve">
<path id="XMLID_1_" fill="#2661AE" d="M20.5,164.4h100.2c5.5,0,10-4.5,10-10V43.8c-13.4-13.4-23-22.8-30-30H20.5
	c-5.5,0-10,4.5-10,10v130.6C10.5,159.9,14.9,164.4,20.5,164.4z"/>
<path id="XMLID_2_" fill="#6EA6D9" d="M100.8,13.9l0.2,20.9c0,4.6,3.7,8.7,8.2,8.8l21.6,0.3"/>
<rect id="XMLID_3_" x="19.3" y="54.3" fill="#6EA6D9" width="103.7" height="31.7"/>
<rect id="XMLID_5_" x="19.3" y="90.3" fill="#6EA6D9" width="30.4" height="28.9"/>
<rect id="XMLID_6_" x="55.8" y="90.3" fill="#6EA6D9" width="30.4" height="28.9"/>
<rect id="XMLID_7_" x="92.3" y="90.3" fill="#6EA6D9" width="30.4" height="28.9"/>
<rect id="XMLID_4_" x="19.3" y="123" fill="#6EA6D9" width="103" height="13.3"/>
<rect id="XMLID_9_" x="19.3" y="140" fill="#6EA6D9" width="103" height="13.3"/>
<rect id="XMLID_8_" x="19.7" y="36.3" fill="#6EA6D9" width="13" height="14.3"/>
</svg>
