<?xml version="1.0" encoding="utf-8"?>
<!-- Generator: Adobe Illustrator 19.0.0, SVG Export Plug-In . SVG Version: 6.00 Build 0)  -->
<svg version="1.1" id="Layer_1" xmlns="http://www.w3.org/2000/svg" xmlns:xlink="http://www.w3.org/1999/xlink" x="0px" y="0px"
	 viewBox="0 0 220 122" enable-background="new 0 0 220 122" xml:space="preserve">
<path fill="#EDF0F1" d="M134.5,64c0-18.5-15-33.4-33.4-33.4S67.7,45.5,67.7,64"/>
<path fill="#EDF0F1" d="M67.7,64c0,18.5,15,33.4,33.4,33.4s33.4-15,33.4-33.4"/>
<circle fill="#54AA5D" cx="100.8" cy="64.2" r="18.9"/>
<circle fill="#215228" cx="100.8" cy="64.2" r="8.5"/>
<circle fill="#FEFEFD" cx="107.4" cy="57.5" r="5.7"/>
<path fill="#215228" d="M81.9,64.2c0,0,0.4,12.6,10.1,16.6c0.1,0,0.2,0.1,0.2,0.1c8.3,4.4,15.3,0.9,17.6-0.2
	C99.7,82.6,86.6,82.6,81.9,64.2z"/>
<text transform="matrix(1 0 0 1 13.6667 91.6667)" fill="#FFFFFF" font-family="'Lato-Light'" font-size="71px">N</text>
<path fill="#407FC1" d="M169,73.9l2.4-4.5l1.4-2.9l12.4-25.1l0.7-1.1l0.8-0.6l1.1-0.2h1.4h9.3V92h-10.7V61.8l0.2-4.8L174,81.9
	l-4.7,8.2L163,79.3l-12.9-19.8l0.1,2.3V92h-10.7V23.6"/>
</svg>
