<?xml version="1.0" encoding="utf-8"?>
<!-- Generator: Adobe Illustrator 19.0.0, SVG Export Plug-In . SVG Version: 6.00 Build 0)  -->
<svg version="1.1" id="Layer_1" xmlns="http://www.w3.org/2000/svg" xmlns:xlink="http://www.w3.org/1999/xlink" x="0px" y="0px"
	 viewBox="0 0 643.9 149" enable-background="new 0 0 643.9 149" xml:space="preserve">
<path fill="#407FC2" d="M394,46.7c0.4,0,0.7,0.1,1,0.3c0.3,0.1,0.6,0.3,0.8,0.6c0.3,0.2,0.6,0.6,0.9,1l24.8,31.6
	c-0.1-1-0.2-2-0.2-2.9s-0.1-1.8-0.1-2.7l0.1-27.8l10.7,0l-0.2,52.5l-6.3,0c-0.9,0-1.7-0.2-2.4-0.4s-1.3-0.8-1.9-1.6l-24.6-31.3
	c0.1,0.9,0.1,1.8,0.2,2.7c0,0.9,0.1,1.7,0.1,2.5l-0.1,28.1L386,99l0.2-52.5l6.4,0C393.2,46.6,393.6,46.6,394,46.7z"/>
<path fill="#407FC2" d="M469.8,53.6c-0.4,0.6-0.7,1-1.1,1.3c-0.4,0.3-0.9,0.4-1.5,0.4c-0.6,0-1.1-0.2-1.8-0.5
	c-0.6-0.3-1.4-0.7-2.2-1.2c-0.8-0.4-1.7-0.8-2.7-1.2c-1-0.4-2.2-0.5-3.5-0.5c-2.3,0-4,0.5-5.1,1.4c-1.1,1-1.7,2.3-1.7,3.9
	c0,1.1,0.3,1.9,1,2.6c0.7,0.7,1.5,1.3,2.6,1.8c1.1,0.5,2.3,1,3.7,1.4c1.4,0.4,2.8,0.9,4.3,1.4c1.5,0.5,2.9,1.1,4.3,1.8
	c1.4,0.7,2.6,1.6,3.7,2.7c1.1,1.1,2,2.4,2.6,4c0.7,1.5,1,3.4,1,5.6c0,2.4-0.4,4.7-1.3,6.8c-0.8,2.1-2.1,3.9-3.7,5.5
	c-1.6,1.6-3.6,2.8-5.9,3.7s-5,1.3-8,1.3c-1.6,0-3.3-0.2-5-0.5s-3.3-0.8-4.9-1.4c-1.6-0.6-3.1-1.3-4.5-2.2c-1.4-0.8-2.6-1.8-3.6-2.8
	l3.6-5.7c0.3-0.4,0.6-0.8,1.1-1c0.5-0.3,1-0.4,1.5-0.4c0.7,0,1.4,0.2,2.2,0.7c0.7,0.5,1.6,1,2.5,1.5c0.9,0.6,2,1.1,3.2,1.5
	c1.2,0.5,2.6,0.7,4.2,0.7c2.2,0,3.9-0.5,5.2-1.4c1.2-1,1.8-2.5,1.9-4.6c0-1.2-0.3-2.2-1-3c-0.7-0.8-1.5-1.4-2.6-1.9
	c-1.1-0.5-2.3-1-3.7-1.3s-2.8-0.8-4.3-1.3c-1.5-0.5-2.9-1.1-4.3-1.7c-1.4-0.7-2.6-1.6-3.7-2.7c-1.1-1.1-2-2.5-2.6-4.2
	c-0.7-1.7-1-3.7-1-6.2c0-2,0.4-3.9,1.2-5.8c0.8-1.9,2-3.5,3.5-5c1.5-1.5,3.4-2.6,5.7-3.5s4.8-1.3,7.7-1.3c1.6,0,3.2,0.1,4.7,0.4
	c1.5,0.3,3,0.6,4.3,1.1c1.4,0.5,2.6,1.1,3.8,1.8c1.2,0.7,2.2,1.5,3.2,2.3L469.8,53.6z"/>
<path fill="#407FC2" d="M517.8,49.1l0,9.6L503,58.7l-0.2,42.8l-12.2,0l0.2-42.8L476,58.6l0-9.6L517.8,49.1z"/>
<path fill="#407FC2" d="M556.6,43.3l0,9.4L535,52.5l0,12.2l16.5,0.1l0,9l-16.5-0.1l0,12.5l21.5,0.1l0,9.4l-33.8-0.1l0.2-52.5
	L556.6,43.3z"/>
<path fill="#407FC2" d="M575.5,78.4l-0.1,19.4l-12.2,0l0.2-52.5l17.1,0.1c3.8,0,7,0.4,9.7,1.2c2.7,0.8,4.9,1.9,6.5,3.3
	c1.7,1.4,2.9,3,3.7,4.9s1.1,4,1.1,6.2c0,1.7-0.2,3.3-0.7,4.8c-0.5,1.5-1.1,2.9-2.1,4.2s-2,2.4-3.3,3.4c-1.3,1-2.8,1.8-4.5,2.5
	c0.8,0.4,1.6,0.9,2.3,1.5c0.7,0.6,1.3,1.3,1.8,2.2l11.1,18.3l-11,0c-2,0-3.5-0.8-4.4-2.3l-8.7-15.3c-0.4-0.7-0.8-1.2-1.3-1.4
	c-0.5-0.3-1.2-0.4-2.2-0.4L575.5,78.4z M575.6,70l4.9,0c1.7,0,3.1-0.2,4.2-0.6c1.2-0.4,2.1-1,2.9-1.7s1.3-1.6,1.6-2.6
	c0.3-1,0.5-2.1,0.5-3.2c0-2.3-0.7-4.1-2.2-5.4c-1.5-1.3-3.8-2-7-2l-4.9,0L575.6,70z"/>
<circle fill="#EDF0F1" cx="338.4" cy="70.6" r="36.8"/>
<circle fill="#54AA5D" cx="338.1" cy="70.8" r="20.8"/>
<circle fill="#215228" cx="338.1" cy="70.8" r="9.4"/>
<circle fill="#FEFEFD" cx="345.3" cy="63.5" r="6.3"/>
<path fill="#215228" d="M317.3,70.8c0,0,0.5,13.9,11.1,18.3c0.1,0,0.2,0.1,0.3,0.1c9.2,4.9,16.8,1,19.3-0.2
	C336.9,91.1,322.5,91.1,317.3,70.8z"/>
<path fill="#407FC2" d="M263.7,77.8l2.4-4.5l1.4-2.9l12.4-25.1l0.7-1.1l0.8-0.6l1.1-0.2h1.4h9.3v52.4h-10.7V65.8l0.2-4.8l-13.9,24.8
	L264,94l-6.3-10.8l-12.9-19.8l0.1,2.3v30.2h-10.7V27.5L263.7,77.8z"/>
<text transform="matrix(1 0 0 1 34.3471 89.7066)" fill="#FFFFFF" font-family="'Lato-Light'" font-size="65.2293px">NERD</text>
</svg>
