<?xml version="1.0" encoding="utf-8"?>
<!-- Generator: Adobe Illustrator 19.0.0, SVG Export Plug-In . SVG Version: 6.00 Build 0)  -->
<svg version="1.1" id="Layer_2" xmlns="http://www.w3.org/2000/svg" xmlns:xlink="http://www.w3.org/1999/xlink" x="0px" y="0px"
	 viewBox="0 0 207 167" enable-background="new 0 0 207 167" xml:space="preserve">
<path id="XMLID_11_" fill="#FFFFFF" stroke="#C1C1C0" stroke-miterlimit="10" d="M32,123h137c2.8,0,5-2.2,5-5V16.7c0-2.8-2.2-5-5-5
	H32c-2.8,0-5,2.2-5,5V118C27,120.8,29.2,123,32,123z"/>
<path id="XMLID_12_" fill="#C1C1C0" d="M27.1,28.1H174V16.5c0-2.9-2.3-5.2-5.2-5.2h-137c-2.6,0-4.7,2.1-4.7,4.7V28.1z"/>
<rect id="XMLID_13_" x="28" y="42.5" fill="#E64C3C" width="145" height="25.3"/>
<circle id="XMLID_14_" fill="#56A8DD" cx="34" cy="35.3" r="4.3"/>
<rect id="XMLID_15_" x="102.2" y="31.5" fill="#56A8DD" width="68.5" height="8.3"/>
<rect id="XMLID_16_" x="30" y="70.3" fill="#1F579A" width="43.1" height="11.3"/>
<rect id="XMLID_18_" x="78.8" y="70.3" fill="#1F579A" width="43.1" height="11.3"/>
<rect id="XMLID_19_" x="127.6" y="70.3" fill="#C6C6C5" width="43.1" height="11.3"/>
<rect id="XMLID_17_" x="30.5" y="84.8" fill="#56A8DD" width="68.4" height="21"/>
<rect id="XMLID_21_" x="102.1" y="84.8" fill="#56A8DD" width="68.4" height="21"/>
<rect id="XMLID_20_" x="30.5" y="109.2" fill="#56A8DD" width="139.8" height="9.5"/>
<path id="XMLID_22_" fill="#FFFFFF" stroke="#C1C1C0" stroke-miterlimit="10" d="M118.2,151.4h70c2.8,0,5-2.2,5-5v-102
	c0-2.8-2.2-5-5-5h-70c-2.8,0-5,2.2-5,5v102C113.2,149.2,115.4,151.4,118.2,151.4z"/>
<path id="XMLID_23_" fill="#C1C1C0" d="M116.9,151.8h72.8c1.9,0,3.5-1.6,3.5-3.5V143h-80v5C113.2,150.1,114.8,151.8,116.9,151.8z"/>
<path id="XMLID_25_" fill="#C1C1C0" d="M189.4,39h-72.8c-1.9,0-3.5,1.6-3.5,3.5l0,5.2h80v-5C193.2,40.7,191.5,39,189.4,39z"/>
<rect id="XMLID_33_" x="115.2" y="60.5" fill="#E64C3C" width="75.9" height="25.3"/>
<circle id="XMLID_32_" fill="#56A8DD" cx="121.9" cy="54.2" r="4.3"/>
<rect id="XMLID_31_" x="181.7" y="50.1" fill="#56A8DD" width="6.9" height="8.3"/>
<rect id="XMLID_30_" x="117.7" y="88.5" fill="#1F579A" width="21.7" height="12.9"/>
<rect id="XMLID_29_" x="142.2" y="88.5" fill="#1F579A" width="21.7" height="12.9"/>
<rect id="XMLID_28_" x="166.8" y="88.5" fill="#1F579A" width="21.7" height="12.9"/>
<rect id="XMLID_27_" x="117.8" y="104.8" fill="#56A8DD" width="70.5" height="14.6"/>
<rect id="XMLID_35_" x="117.8" y="122.8" fill="#56A8DD" width="70.5" height="14.6"/>
<path id="XMLID_47_" fill="#FFFFFF" stroke="#C1C1C0" stroke-miterlimit="10" d="M15,143.3h23.5c2.2,0,4-1.8,4-4V79.3
	c0-2.2-1.8-4-4-4H15c-2.2,0-4,1.8-4,4v60.1C11,141.5,12.8,143.3,15,143.3z"/>
<rect id="XMLID_44_" x="11.7" y="88.1" fill="#E64C3C" width="30.1" height="16"/>
<rect id="XMLID_42_" x="36.1" y="81.6" fill="#56A8DD" width="4.4" height="5.1"/>
<rect id="XMLID_38_" x="12.8" y="105.9" fill="#1F579A" width="28" height="8.9"/>
<rect id="XMLID_46_" x="12.8" y="116" fill="#1F579A" width="28" height="8.9"/>
<rect id="XMLID_48_" x="12.8" y="126.1" fill="#1F579A" width="28" height="8.9"/>
<path id="XMLID_34_" fill="#C1C1C0" d="M11,80.2h31.4c0.1,0,0.1,0,0.1-0.1v-1c0-2.1-1.7-3.9-3.9-3.9H15c-2.2,0-4,1.8-4,4V80.2z"/>
<path id="XMLID_45_" fill="#C1C1C0" d="M11,136.7h31.4c0.1,0,0.1,0,0.1,0.1v2.4c0,2.1-1.7,3.9-3.9,3.9H15c-2.2,0-4-1.8-4-4V136.7z"
	/>
<ellipse id="XMLID_43_" fill="#56A8DD" cx="15.3" cy="84" rx="2.5" ry="2.6"/>
</svg>
