<?xml version="1.0" encoding="utf-8"?>
<!-- Generator: Adobe Illustrator 19.0.0, SVG Export Plug-In . SVG Version: 6.00 Build 0)  -->
<svg version="1.1" xmlns="http://www.w3.org/2000/svg" xmlns:xlink="http://www.w3.org/1999/xlink" x="0px" y="0px"
	 viewBox="0 0 136.5 134.6" enable-background="new 0 0 136.5 134.6" xml:space="preserve">
<g id="Layer_1">
	<circle id="XMLID_36_" fill="#2661AE" cx="67.9" cy="65.5" r="56.5"/>
	<ellipse id="XMLID_40_" fill="#153156" cx="95.2" cy="49.8" rx="7.2" ry="8.5"/>
	<ellipse id="XMLID_58_" fill="#153156" cx="39.2" cy="49.1" rx="7.2" ry="8.5"/>
</g>
<g id="Layer_3">
	<path id="XMLID_51_" fill="none" stroke="#E74C3C" stroke-miterlimit="10" d="M10.8,35.9c0,0,40.9-5.3,51.8,3.4l-0.1,5.5
		c0,0-1.6,14.9-11.4,18.1c-7.2,2.4-19.7,1.7-25.4,1.4c-2.2-0.1-4.2-1.2-5.4-3c-2.8-4.2-5.9-11.5-7.2-17.9l-2.5-0.7
		c-0.7-0.2-1.2-0.9-1.3-1.6L9,37.5C9,36.7,9.5,36.1,10.2,36L10.8,35.9z"/>
	<path id="XMLID_52_" fill="#E74C3C" d="M61.4,42.7c0,0-0.1-3-3-4c-2.4-0.8-21-4.7-42.6-1.2c-0.5,0.1-1.1,0.4-1.3,0.8
		c-1.1,1.8-0.6,3.6-0.5,4.3L10.3,42l-0.5-5.5c0,0,31.8-4.1,43.9-0.6c8.1,2.5,9,3.2,9,3.2l-0.3,3.7H61.4z"/>
	<path id="XMLID_56_" fill="none" stroke="#E74C3C" stroke-miterlimit="10" d="M123.7,35.9c0,0-41.6-5.3-52.7,3.4l0.1,5.5
		c0,0,1.7,14.9,11.6,18.1c7.3,2.4,20,1.7,25.8,1.4c2.2-0.1,4.2-1.2,5.5-3c2.9-4.2,6-11.5,7.4-17.9l2.6-0.7c0.7-0.2,1.3-0.9,1.3-1.6
		l0.3-3.6c0.1-0.8-0.5-1.4-1.3-1.5L123.7,35.9z"/>
	<path id="XMLID_55_" fill="#E74C3C" d="M72.2,42.7c0,0,0.1-3,3-4c2.5-0.8,21.4-4.7,43.4-1.2c0.5,0.1,1.1,0.4,1.3,0.8
		c1.1,1.8,0.7,3.6,0.5,4.3l3.8-0.6l0.6-5.5c0,0-32.4-4.1-44.7-0.6C71.9,38.3,71,39,71,39l0.3,3.7H72.2z"/>
	<path id="XMLID_53_" fill="#56A8DD" d="M71.4,37.3c0-0.9-0.8-1.6-2-1.7c-2.1-0.2-5.4-0.5-6.5,0.7c-1.3,1.4-1,10.7,0.6,11.8
		c1.6,1.1,6.3,0.7,6.8-0.1C71.6,46.2,71.5,40.4,71.4,37.3z"/>
</g>
<g id="Layer_4">
	<path id="XMLID_41_" fill="#FFFFFF" d="M32,77.3c-1.9,0-3.3,2-2.7,3.8c2.5,7.6,11.1,23.9,39.3,23.9c29.4,0,36.1-16.5,37.5-24.2
		c0.3-1.8-1-3.5-2.8-3.4L32,77.3z"/>
</g>
</svg>
