<?xml version="1.0" encoding="utf-8"?>
<!-- Generator: Adobe Illustrator 19.0.0, SVG Export Plug-In . SVG Version: 6.00 Build 0)  -->
<svg version="1.1" id="Layer_2" xmlns="http://www.w3.org/2000/svg" xmlns:xlink="http://www.w3.org/1999/xlink" x="0px" y="0px"
	 viewBox="0 0 106 131" enable-background="new 0 0 106 131" xml:space="preserve">
<path id="XMLID_75_" stroke="#FFFFFF" stroke-miterlimit="10" d="M17.9,121.9h70c2.8,0,5-2.2,5-5v-102c0-2.8-2.2-5-5-5h-70
	c-2.8,0-5,2.2-5,5v102C12.9,119.7,15.2,121.9,17.9,121.9z"/>
<path id="XMLID_74_" fill="#FFFFFF" d="M16.3,122.4h72.8c1.9,0,3.5-1.6,3.5-3.5v-5.2h-80v5C12.6,120.8,14.2,122.4,16.3,122.4z"/>
<path id="XMLID_69_" fill="#FFFFFF" d="M89.2,10.3H16.4c-1.9,0-3.5,1.6-3.5,3.5V19h80l0-5C92.9,11.9,91.3,10.3,89.2,10.3z"/>
<circle id="XMLID_76_" cx="52.6" cy="118.1" r="3.2"/>
</svg>
