<?xml version="1.0" encoding="utf-8"?>
<!-- Generator: Adobe Illustrator 19.0.0, SVG Export Plug-In . SVG Version: 6.00 Build 0)  -->
<svg version="1.1" id="Layer_1" xmlns="http://www.w3.org/2000/svg" xmlns:xlink="http://www.w3.org/1999/xlink" x="0px" y="0px"
	 viewBox="-61.4 112.1 528 787.5" enable-background="new -61.4 112.1 528 787.5" xml:space="preserve">
<path fill="#9A2620" d="M124,413c0,0-28-3-37,27c-16.5,20.6-46.6,47.4-56.6,56.1c-1.9,1.6-2.5,4.3-1.5,6.6c0.1,0.2,0.2,0.4,0.4,0.5
	l3.9,2.8c0,0,29.8,2,57.8,60l1.6,2.4c1.1,1.7,3.7,1.7,4.8,0L106,555c0,0,25.5,81.5,25.5,109.5c0,18.3-6.9,28.8-9.3,34.3
	c-1.2,2.7-0.4,5.8,1.7,7.7l11,9.6c0,0,158.3,8.5,170.5-5.2c4.9-5.6,8.6-9.5,10.9-12c1.8-1.9,2.2-4.8,0.9-7.1
	c-6-10.8-10.8-48.2,6.3-145.9c3.6,12.2,5.6,21.4,6.5,26.5c0.5,2.5,2.9,4,5.3,3.4L346,573c0,0,1.3-6.3,46.3-61.3
	c6.7-5.7,1.3-13,1.3-13S351,445,341,435c-3-18-29-34-40-33s-37,59-82,54s-81-44-81-44L124,413z"/>
<ellipse fill="#3E7FC6" cx="208" cy="312" rx="128" ry="143"/>
<path fill="#3E7FC6" d="M85.1,312.1c0.3-4.4-3.6-7.9-8-7c-11.1,2.3-28.6,7.3-28.6,16.5c0,13.5,0,66,28.5,70.5
	c10.2,1.6,16.9,1.7,21.4,1.1c4.7-0.6,7.3-5.9,4.8-10C96.4,371.6,82.8,344.2,85.1,312.1z"/>
<path fill="#3E7FC6" d="M327.2,309.6c-1.5,14.1-5.2,42.9-11.6,67.1c-1.5,5.5,1.5,11.2,6.8,13.2c9.5,3.5,24.8,2.3,35.1-5.9
	c15-12,18.5-51,8-70.5c-6.4-11.9-18.9-13.9-27.7-13.6C332.3,300,327.8,304.2,327.2,309.6z"/>
<path fill="#F89A20" d="M123.7,202.1l-5.6-24c-0.4-1.8,1.3-3.3,3-2.7l17.2,6.2c4.5,1.6,9.4-1.6,9.6-6.4c0.8-13.7,7.6-37.8,43.8-49.3
	c1.9-0.6,3.7,1.3,3,3.2c-8.8,23.8-7.6,26.8-7.6,26.8s8.8-25.2,65.6-24.2c2,0,3.2,2.4,2,4c-6.5,8.7-9.6,16.8-9.6,16.8
	s43.4,14.6,56.5,24.2c1.8,1.3,1.1,4.2-1.1,4.5l-22.7,3.3l16.4,12.5c1,0.8,0.6,2.4-0.7,2.6l-29.1,3c0,0,10.5,6,13.7,14.1
	c0.7,1.8-0.9,3.7-2.8,3.4c-16.4-2.8-44.9-14.8-44.9-14.8l15.8,16.9c1.2,1.3,0.1,3.3-1.6,3.1c-14.1-2-53.4-8-67.7-14.4
	c-1.9-0.8-4,0.4-4.3,2.4c-0.3,2.2-0.7,3.9-1,5.2c-0.7,2.4-3.2,3.9-5.7,3.2c-7.6-2.2-25.2-7.5-38.5-14.4
	C125.6,206.2,124.2,204.3,123.7,202.1z"/>
<path fill="#F89A20" d="M235.2,436.5l-29.8,2.4c-1.7,0.2-3,1.6-3,3.3c-0.1,2.8-0.6,6.6-3.1,6.8c-3.4,0.2-19.8-8.8-26.4-11.6
	c-0.9-0.4-1.8,0.3-1.7,1.3c0.3,3.6,1.8,10.8,7.9,14c-7.4,3.9-11.9,9.8-14,13c-0.7,1,0,2.4,1.3,2.5l17.7,1.5l-3.2,13
	c-0.3,1.2,0.9,2.1,2,1.5l12.9-7.1c0,0-3.4,8,2.6,18.1c0.8,1.3,2.6,1.5,3.6,0.4c4.4-4.5,10.1-9,10.1-9s3.8,10.1,8.3,14.9
	c1.9,2.1,5.3,1.6,6.5-0.9c2.9-5.9,3.5-15.4,3.5-15.4s6,7.8,14.5,11.2c2.9,1.1,6-0.9,6.2-4c0.4-6.8-0.6-12.9-0.6-12.9l13.1,6.7
	c1.5,0.8,3.2-0.3,3.2-2c-0.1-5.1-0.9-13.9-4-15.7c6.1,1.7,10.3,0.6,12.9-0.9c1.9-1,2.3-3.5,1-5.1L265.3,448l1.1-14.7
	c0.1-1-1.1-1.6-1.9-1c-5.6,4.5-20.8,16.5-22.9,16.3c-1.9-0.2-3.3-6.7-3.9-10.2C237.5,437.2,236.4,436.3,235.2,436.5z"/>
<path fill="#3E7FC6" d="M41,502l-17.8,6.7c-3.7,1.4-6.1,5-5.8,9L18,528l-49.7,66c-1.5,2-2.4,4.4-2.6,6.8
	C-35.7,620-42.6,707.1-50,729.6c-1.1,3.2,0.1,6.8,2.9,8.7c8.8,6.1,16.1,10,22.1,19.7s12,27.4,14.1,34.2c0.7,2.2,2.2,4.1,4.3,5.2
	c5.7,3,18.6,6.3,40.6-6.4l14.4,15.3c1.1,1.2,2.6,1.9,4.3,2.1c7.1,0.6,26.6-0.2,33.9-26.2c0.8-3-1.2-5.9-4.3-6.3
	c-10-1.1-18.8-7.4-21.6-9.6c-0.7-0.5-1.2-1.1-1.6-1.9c-2.7-5.2-13.4-27.9-2.5-36.9c1.1-0.9,2.8-0.5,3.5,0.8
	c8.6,18.3,16.4,25.6,26.9,24.7c7.9-0.7,11.7-5.6,13.2-8.2c0.6-1,0.6-2.2,0.1-3.3c-2.5-5.6-10.8-25-13.3-38.5c-1.5-8-6-12-6-12
	l-18.6-17.8c-2.7-2.6-4-6.5-3.2-10.2c4.3-20.5,18.9-87.6,30.5-103.8c2.1-2.9,2.8-6.7,1.8-10.1C81.7,513.5,41,502,41,502z"/>
<path fill="#3E7FC6" d="M389.6,506.3l10.8,2.2c2.1,0.4,3.5,2.3,3.3,4.4l-1.4,14.6l53.9,85.9c0.3,0.9,0.5,1.9,0.5,2.8
	c0.1,5.5-0.1,86.7-3.7,117.9c-3.9,33.5-11.5,17.5-16.4,35.4l-2.6,10.4c-0.3,1.2-1.1,2.2-2.1,2.9l-24.1,15.1c-1.6,1-3.7,0.7-5-0.6
	l-2.9-3c-1.3-1.3-3.5-1.4-4.8-0.1L381,808c-1.2,1.2-3,1.5-4.6,0.9c-4.6-1.7-13.7-5.9-14-12.3C362,788,373.8,764,373.8,764
	s-21.7,43.8-32.7,35.7c-4.9-7.5-5.9-12.9-6.1-15.4c-0.1-0.9,0.2-1.7,0.6-2.4c2-3.3,8.3-15.2,7.4-35.8c-0.7-16-0.6-24.3-0.4-28.2
	c0.1-1.8,0.8-3.5,2.2-4.8l18.8-17.9c1.8-1.7,2.5-4.1,1.9-6.5c-4.7-18.8-25.4-102.1-29.4-120.6c-9.5-36.3,36-59.8,46.5-64.7
	c1.3-0.6,2.8-0.4,3.9,0.4L389.6,506.3z"/>
<circle fill="#ECF0F1" cx="211.3" cy="298.8" r="59.5"/>
<circle fill="#55AA5D" cx="211.3" cy="298.8" r="36"/>
<ellipse fill="#045104" cx="211.3" cy="298.8" rx="18.5" ry="19"/>
<circle fill="#FFFFFF" cx="232.3" cy="270.7" r="19.3"/>
<path fill="#5D2568" d="M212.7,430.3c8-0.3,61.3,4,80.7-69.3c-15.3,16-46,37.3-72,36s-74-9.3-81.3-16c5.2,9,14.2,23.9,28.5,34.9
	C179.6,424.6,194.1,430.9,212.7,430.3z"/>
<path fill="#F05555" d="M219.3,384c26,1.1,45.8,27.8,45.8,27.8s-12.2,15-44,18.3c-15.5,1.8-30.7-0.3-47-10.2
	C178,399.8,203.3,383.3,219.3,384z"/>
<path fill="#ADD9E8" d="M145.3,387c0,0,27.3,8,30,8c2.1,4.6,8.1,12.1,12,15.2c1.3,1,3.1,0.9,4.3-0.3c5.2-5.7,11.7-12.2,11.7-12.2
	s18,6.7,42.7-3.3l7.7,9.4c1,1.2,2.7,1.3,3.9,0.3c2.4-2.1,5.8-6.2,5.8-12.3c12.7-7.3,26-18,30-30.7c-3.3-10.7-8-12.7-11.3-10.7
	s-26.4,29.4-58.7,30c-34.7,0.7-58-7.3-72.7-16C132.7,361,138.7,383,145.3,387z"/>
<path fill="#0C258E" d="M98.6,369.5c-3-6.3-13.7-30.8-10.3-45.4c0.4-1.6-0.9-3.2-2.5-3.1c-21,0.9-29.8,21.4-20.1,35.7
	c0.3,0.5,1,0.3,1.1-0.3c1.1-8.9,6.8-21.7,14.4-24.7c0.5-0.2,0.9,0.2,0.8,0.7c-1.8,8.3,2.3,30.8,15.7,37.9
	C98.3,370.5,98.8,370,98.6,369.5z"/>
<path fill="#0C258E" d="M324.2,369.5c2.8-6.3,12.9-30.8,9.7-45.4c-0.4-1.6,0.8-3.2,2.4-3.1c19.7,0.9,27.9,21.4,18.8,35.7
	c-0.3,0.5-1,0.3-1-0.3c-1.1-8.9-6.4-21.7-13.5-24.7c-0.4-0.2-0.9,0.2-0.8,0.7c1.7,8.3-2.2,30.8-14.8,37.9
	C324.5,370.5,324,370,324.2,369.5z"/>
<path fill="#3E7FC6" d="M137.9,846.5l-55.4,17c0,0-16.1-1-22.5,7s69.1,22,89.2,18s58.6-8,32.9-35c-27.3-4-37.8-9-37.8-9L137.9,846.5
	z"/>
<path fill="#3E7FC6" d="M281,851.6c0,0-18.1,14.4-15.2,22.7s33.7,8.2,53.1,10s64.6-3,69.4-13.6s-65.6-26.3-65.6-26.3L281,851.6z"/>
<path fill="#806A45" d="M132,713.4l10,121.9c0,2.3-1.1,4.5-3.1,5.8l-24.8,10.6c-1.6,1.1-1.3,3.5,0.5,4.2l44.7,13.7
	c1.1,0.4,2.3,0.6,3.5,0.4l27.7-3.5c1.9-0.2,2.8-2.5,1.5-4l-10.7-12.2c-1.3-1.5-1.7-3.6-1.1-5.5l12.3-61.7c0.8-2.6,3.2-4.3,5.9-4.3
	h53.3c2.5,0,4.7,1.6,5.4,4l26.5,51.9c0.5,1.8,0.4,3.7-0.3,5.5l-10.8,14.6c-0.7,1.6,0.4,3.4,2.1,3.6l36.2,7c2,0.2,3.9-0.4,5.4-1.7
	l10.6-17.6c1.7-1.5,1.5-4.3-0.4-5.6l-7.2-2.7c-1.8-1.3-7-8.3-7.1-10.4c-1.3-17.9-7.2-99.4-4.7-119c0.1-1.1-0.9-1.9-1.9-1.5
	c-22.3,8.2-107.3,11.4-171.2,4.3C133.1,711.1,132,712.1,132,713.4z"/>
<path opacity="0.17" fill="#000305" enable-background="new    " d="M219.1,150.7c-0.4,1.6-5.7,7.4-5.9,9.5c-0.2,2,1.5,3.7,3.5,3.5
	c6.4-0.6,19.7-0.3,22.5,0.5c2.9,0.7,3.3,4.6,0.7,5.9l-8.6,4.4c-2.7,1.4,8.9,5.4,11.8,6l2,0.4c3.3,0.6,3.5,5.3,0.3,6.2l-1.9,0.5
	c-2.5,0.7-18.2,0.1-16,1.6l7.4,5.8c2.4,1.8,1.3,5.5-1.6,5.7l-25.9-3.4c-3,0.3-6.1,3.6-3.7,5.3l6.3,10c2.4,1.7,5.3,7,2.3,7.3
	l-17.3-3.7c-0.8,0.1-6.9,25.8-8.2,28.2c-7,6-22.2,17.1-21.6,55.2c0.5,31,7.2,36.3,8.5,45c1.4,9.8,0.3,26.7,1.1,29.5
	c0.1,0.3,0.1,0.6,0.1,0.9l-0.3,19.8c0,0.2,0,0.4-0.1,0.6c-0.6,2.8-4.8,24.9,18.7,48.7c0.2,0.2,0.4,0.4,0.6,0.5l3.6,2.1
	c1.8,1.1,4.1,0.2,4.7-1.9l0.2-0.8c0.7-2.3,3.5-3.1,5.3-1.5c5.1,4.9,13.1,12.6,16.3,46.5c0.3,3.4-3.3,12.9-5,10
	c-1.4-2.3-4.7-6.9-5.7-9c-0.8-1.9-1.7-3.4-3.3-2.1l-5.7,4.5c-1,0.8-1.5,2.2-1.1,3.4c2,6.6,8.4,27.4,15.9,39.9
	c9,15-6.6,66.5-1.5,91.5c5.3,26,13.7,59.2,14.9,63.9c0.1,0.4,0.1,0.8,0.1,1.1l-2.4,21.2c-0.1,0.5-0.2,1-0.5,1.4l-9.2,7
	c-0.4,0.7-1.2,9.2-1,10l6.7,40.2c0.3,1.9,1.2,6-0.7,6.1l-31.9-0.8c-1.4,0.1-2.6,1.1-2.9,2.5l-14.2,64.4c-0.2,0.8,0,1.6,0.3,2.3
	l9.1,15.9c0.4,0.7,0.5,1.5,0.4,2.2l1.6,6.1c-0.2,1-4.9,7.6-5.9,8c-6.8,2.9-34.5,13.6-61.7,9.2c-36.7-6-51.1-11.4-56.5-14.3
	c-2-1-2.3-3.7-0.7-5.2c3.1-2.8,9.3-2.5,19.5-4.7c16.7-3.7,40.2-14.6,44.2-17c0.3-0.2,0.6-0.3,1-0.4c2.2-0.4,15.6-2,14.8-11.9
	c-2.7-36-7.3-107-8.6-117.9c-0.1-0.6-0.3-1.3-0.8-1.7l-9.4-10.6c-0.8-0.9-2.7-4.9-1.3-5.9l10.1-23.5c0.7-1.7,0.9-3.6,0.6-5.4
	c-0.6-2.8-1.1-7.9-1.3-14c-0.3-13.3-22.3-92.7-22.3-92.7s-1.7-4-3-10l-7.3,11c-1.4,1.8-3.5,0.6-4.7-1.3l-3-6.3
	c0-0.1-0.3-1.6-0.3-1.7L82.4,535c-1.1-2.2-4.2-2.4-5.5-0.3c-5.7,8.9-19.4,30.7-40.1,66c-0.3,0.5-0.4,1.1-0.4,1.6
	c-0.1,22.2-2.3,48.5-2.9,54.7c-0.1,0.9,0.2,1.8,0.8,2.4l19.6,21.9l20.8,22.9c0.4,0.4,0.7,1,0.8,1.6c1.3,6.7,9,48.8,4.1,45.9
	c-11.5-6.9-18.5-20.2-21.1-26c-0.7-1.6-2.6-2.3-4.3-1.6c-4.6,2.1-12.8,7.2-14.9,16.8c-3,13.5,19.8,47.6,34.5,51
	c13.4,3.1-15.2,19.1-21.9,15.8c-6-3-17-17.3-17-17.3l-8.6-12.2c-1.1-1.5-3.2-1.8-4.6-0.7l-2.9,2.3c-1.7,1.4-1.6,4,0.3,5.2l6,3.8
	c2.3,1.4,1.9,4.9-0.7,5.7c-9.2,3.1-25.8,7.7-31.2,2.4c-7.5-7.5-16-40.8-22-45.3c-5-3.7-16.3-13.9-20.1-17.2c-0.8-0.7,1.5,2.9-1-2.8
	c10.8-29,15.7-132.8,15.7-132.8c0.1-0.6,0.3-1.1,0.6-1.5l51.5-68.8c0.4-0.5,0.6-1.2,0.6-1.9l0.3-13.8c0-1.3,0.8-2.5,2.1-2.9l7.8-3
	c2-0.8,2.7-3.3,1.3-5l0,0c-1-1.3-1-3.1,0.2-4.3L86,442c0.4-0.4,0.7-1,0.9-1.6c0.8-4.3,7.7-23,26.7-26.1c3.4-0.6,6.9,1.1,0.4-5.7
	c-5.2-5.5-10.1-13.7-12-16.8c-0.7-1.1,0.1,0.4-1.2,0.7c-6.8,1.3-29.7,3.6-41.3-13.3c-4.9-7.2-11.3-32.7-10.1-60.1V319
	c4.7-10.3,22.3-13.1,29.1-13.9c1.5-0.2,2.7-1.4,2.8-2.9c1.1-14,4.5-61.8,42-96.8c0.9-0.8,1.3-2,1.1-3.1c-1.4-7.8-2.5-14.2-3.2-18.3
	c-0.4-2.3,1.7-4.3,4-3.6l18.5,5.1c1.9,0.5,3.7-0.7,4-2.6c1.5-10.6,8.2-41.5,35.6-51.6c2.5-0.9,4.9,1.4,4.2,3.9
	c-2.7,9-3.8,15.9-4.2,20.8c-0.3,2.9,3.2,4.6,5.4,2.6c3.9-3.6,14.6-8.2,21.5-11.5C214.9,144.8,220.4,145.3,219.1,150.7z"/>
<g id="Layer_15">
	<path opacity="0.35" fill="#FFFFFF" enable-background="new    " d="M252.8,131.8c0,0-11.6,2.8-21.2,12.2
		c-5.4,5.3-5.6,7.6-0.2,10.3c4.2,2.1,34.1,11.8,46.2,15.7c1.4,0.5,1.3,2.5-0.1,2.8l-12.3,2.7c-1.7,0.4-2.3,2.4-1.1,3.6l10.7,11.5
		c1.5,1.6,0.6,4.2-1.5,4.6l-13,2.6c-2.1,0.4-2.7,3.1-1,4.4l16.7,17.9c1.1,0.8,4.6-1.2,1-6.2c0,0-3.4-4.4-3.4-4.5l-5.6-4.9
		c-0.1-0.2-3-1.8-2.9-2c6.4-0.6,4.9-0.9,9-0.9c21.6,6.4,51.6,61.7,53.4,102.2c0.1,1.4,1,3.2,2.4,3.1c31.3-4,39.2,16.2,39.9,42
		c0,0.6,0.8,0.6,0.9,0.1c3.1-18.1-2.4-36-10.8-42.8c-5.2-4.5-14.2-6.5-19-6.5c-1.9,0-4,0.3-5.2,0.3c-0.2-1.1-0.3-3.9-0.6-5.3
		c-2-17.9-7.6-40.6-18.4-58.4c-14.7-25.8-29-36.1-29-36.1l5.9-0.5c2.2-0.5,1.1-2.4-0.1-3.3l-15.6-11.8l21.7-3.2
		c1.6-0.2,3.1-0.7,3.1-2.2l0.1-0.8c0-1.1-2.4-2.5-2.6-2.7c-8.2-6.9-54.8-23.1-54.8-23.1l3.6-7.6c0-0.1,4.8-7.6,5.8-8.9
		C255.5,134.7,255.8,132.5,252.8,131.8z"/>
	<path opacity="0.32" fill="#FFFFFF" enable-background="new    " d="M306.7,402.8l-5.6,7.2c0,0,28,12.2,31.8,30
		c14.8,17.8,38.7,51.8,45.6,61.7c1,1.5,0.5,3.5-1.1,4.4l-3,1.6c-0.9,0.5-0.7,1.7,0.3,1.9l14.6,3.3c1.6,0.4,2.7,1.7,2.7,3.3v12.2
		c0,0.7,0.2,1.4,0.6,2l54.9,83.1c0,0,0,129-1,133c-0.6,2.6-2.7,7.3-4.1,10.5c-0.6,1.3,1.1,2.6,2.2,1.6c2.7-2.4,7-7.2,8.5-24.4
		c4.3-48.1,3.7-117.9,3.7-117.9s0.2-1.6-2.3-5.7c-3.9-6.4-52.2-83-52.2-83l1.1-12.1c0.1-1.6,0.7-3.9-0.2-5.2l-2.8-1.7l-5-0.8
		c0,0,2-4.3-1.7-9c-21.4-27.7-45.7-55.4-52-62.8c-0.4-0.5-1-1.5-1.1-2.2c-1.2-5-6.9-20.2-32.9-31.5
		C306.9,401.8,306.8,402.7,306.7,402.8z"/>
</g>
</svg>
